<mxfile host="app.diagrams.net" modified="2023-05-24T13:57:10.484Z" agent="Mozilla/5.0 (Windows NT 10.0; Win64; x64) AppleWebKit/537.36 (KHTML, like Gecko) Chrome/110.0.0.0 YaBrowser/23.3.4.603 Yowser/2.5 Safari/537.36" etag="XLCl7wqU_d5qciCIgstX" version="21.3.0" type="github">
  <diagram name="Page-1" id="822b0af5-4adb-64df-f703-e8dfc1f81529">
    <mxGraphModel dx="2026" dy="1152" grid="1" gridSize="10" guides="1" tooltips="1" connect="1" arrows="1" fold="1" page="1" pageScale="1" pageWidth="1100" pageHeight="850" background="none" math="0" shadow="0">
      <root>
        <mxCell id="0" />
        <mxCell id="1" parent="0" />
        <mxCell id="DlgPrFkJjFX9OJdV7T4M-1" value="" style="verticalLabelPosition=bottom;sketch=0;aspect=fixed;html=1;verticalAlign=top;strokeColor=none;align=center;outlineConnect=0;shape=mxgraph.citrix.globe;" vertex="1" parent="1">
          <mxGeometry x="180" y="321" width="78.5" height="75" as="geometry" />
        </mxCell>
        <mxCell id="DlgPrFkJjFX9OJdV7T4M-2" value="" style="verticalLabelPosition=bottom;sketch=0;aspect=fixed;html=1;verticalAlign=top;strokeColor=none;align=center;outlineConnect=0;shape=mxgraph.citrix.switch;" vertex="1" parent="1">
          <mxGeometry x="340" y="337.75" width="92" height="41.5" as="geometry" />
        </mxCell>
        <mxCell id="DlgPrFkJjFX9OJdV7T4M-3" value="" style="verticalLabelPosition=bottom;sketch=0;aspect=fixed;html=1;verticalAlign=top;strokeColor=none;align=center;outlineConnect=0;shape=mxgraph.citrix.firewall;" vertex="1" parent="1">
          <mxGeometry x="500" y="312" width="75" height="93" as="geometry" />
        </mxCell>
        <mxCell id="DlgPrFkJjFX9OJdV7T4M-4" value="" style="verticalLabelPosition=bottom;sketch=0;aspect=fixed;html=1;verticalAlign=top;strokeColor=none;align=center;outlineConnect=0;shape=mxgraph.citrix.middleware;" vertex="1" parent="1">
          <mxGeometry x="624.5" y="480" width="114" height="68" as="geometry" />
        </mxCell>
        <mxCell id="DlgPrFkJjFX9OJdV7T4M-5" value="" style="verticalLabelPosition=bottom;sketch=0;aspect=fixed;html=1;verticalAlign=top;strokeColor=none;align=center;outlineConnect=0;shape=mxgraph.citrix.xendesktop_server;" vertex="1" parent="1">
          <mxGeometry x="644" y="288.25" width="75" height="91" as="geometry" />
        </mxCell>
        <mxCell id="DlgPrFkJjFX9OJdV7T4M-6" value="" style="endArrow=classic;html=1;rounded=0;" edge="1" parent="1" source="DlgPrFkJjFX9OJdV7T4M-1" target="DlgPrFkJjFX9OJdV7T4M-2">
          <mxGeometry width="50" height="50" relative="1" as="geometry">
            <mxPoint x="300" y="270" as="sourcePoint" />
            <mxPoint x="350" y="220" as="targetPoint" />
          </mxGeometry>
        </mxCell>
        <mxCell id="DlgPrFkJjFX9OJdV7T4M-7" value="" style="endArrow=classic;html=1;rounded=0;" edge="1" parent="1" source="DlgPrFkJjFX9OJdV7T4M-3" target="DlgPrFkJjFX9OJdV7T4M-4">
          <mxGeometry width="50" height="50" relative="1" as="geometry">
            <mxPoint x="600" y="475" as="sourcePoint" />
            <mxPoint x="650" y="425" as="targetPoint" />
          </mxGeometry>
        </mxCell>
        <mxCell id="DlgPrFkJjFX9OJdV7T4M-8" value="" style="endArrow=classic;html=1;rounded=0;" edge="1" parent="1" source="DlgPrFkJjFX9OJdV7T4M-2" target="DlgPrFkJjFX9OJdV7T4M-3">
          <mxGeometry width="50" height="50" relative="1" as="geometry">
            <mxPoint x="430" y="300" as="sourcePoint" />
            <mxPoint x="480" y="250" as="targetPoint" />
          </mxGeometry>
        </mxCell>
        <mxCell id="DlgPrFkJjFX9OJdV7T4M-9" value="" style="endArrow=classic;html=1;rounded=0;" edge="1" parent="1" source="DlgPrFkJjFX9OJdV7T4M-3" target="DlgPrFkJjFX9OJdV7T4M-5">
          <mxGeometry width="50" height="50" relative="1" as="geometry">
            <mxPoint x="740" y="320" as="sourcePoint" />
            <mxPoint x="670" y="330" as="targetPoint" />
          </mxGeometry>
        </mxCell>
        <mxCell id="DlgPrFkJjFX9OJdV7T4M-10" value="Интернет" style="text;strokeColor=none;fillColor=none;html=1;fontSize=24;fontStyle=1;verticalAlign=middle;align=center;" vertex="1" parent="1">
          <mxGeometry x="169.25" y="260" width="100" height="40" as="geometry" />
        </mxCell>
        <mxCell id="DlgPrFkJjFX9OJdV7T4M-11" value="Роутер" style="text;strokeColor=none;fillColor=none;html=1;fontSize=24;fontStyle=1;verticalAlign=middle;align=center;" vertex="1" parent="1">
          <mxGeometry x="332" y="405" width="100" height="40" as="geometry" />
        </mxCell>
        <mxCell id="DlgPrFkJjFX9OJdV7T4M-12" value="Фаервол" style="text;strokeColor=none;fillColor=none;html=1;fontSize=24;fontStyle=1;verticalAlign=middle;align=center;" vertex="1" parent="1">
          <mxGeometry x="470" y="260" width="100" height="40" as="geometry" />
        </mxCell>
        <mxCell id="DlgPrFkJjFX9OJdV7T4M-13" value="СОВ" style="text;strokeColor=none;fillColor=none;html=1;fontSize=24;fontStyle=1;verticalAlign=middle;align=center;" vertex="1" parent="1">
          <mxGeometry x="631.5" y="570" width="100" height="40" as="geometry" />
        </mxCell>
        <mxCell id="DlgPrFkJjFX9OJdV7T4M-14" value="" style="endArrow=classic;html=1;rounded=0;" edge="1" parent="1" source="DlgPrFkJjFX9OJdV7T4M-4" target="DlgPrFkJjFX9OJdV7T4M-5">
          <mxGeometry width="50" height="50" relative="1" as="geometry">
            <mxPoint x="1000" y="510" as="sourcePoint" />
            <mxPoint x="1050" y="460" as="targetPoint" />
          </mxGeometry>
        </mxCell>
        <mxCell id="DlgPrFkJjFX9OJdV7T4M-15" value="Сервер" style="text;strokeColor=none;fillColor=none;html=1;fontSize=24;fontStyle=1;verticalAlign=middle;align=center;" vertex="1" parent="1">
          <mxGeometry x="660" y="240" width="100" height="40" as="geometry" />
        </mxCell>
      </root>
    </mxGraphModel>
  </diagram>
</mxfile>
